<?xml version="1.0" encoding="utf-8"?>
<!-- Generator: Adobe Illustrator 22.1.0, SVG Export Plug-In . SVG Version: 6.00 Build 0)  -->
<svg version="1.1" id="Слой_1" xmlns="http://www.w3.org/2000/svg" xmlns:xlink="http://www.w3.org/1999/xlink" x="0px" y="0px"
	 width="18px" height="18px" viewBox="0 0 22 22" enable-background="new 0 0 22 22" xml:space="preserve">
<circle fill="none" cx="11" cy="11" r="11"/>
<rect x="10" y="10.1" fill="#aeb5bd" width="2.1" height="6.2"/>
<rect x="10" y="6" fill="#aeb5bd" width="2.1" height="2.1"/>
<path fill="#aeb5bd" d="M11,0C4.925,0,0,4.925,0,11s4.925,11,11,11s11-4.925,11-11c0.018-6.057-4.878-10.982-10.936-11
	C11.043,0,11.021,0,11,0z M11,20.2c-5.081,0-9.2-4.119-9.2-9.2c0-5.081,4.119-9.2,9.2-9.2c5.081,0,9.2,4.119,9.2,9.2
	c0.013,5.068-4.084,9.187-9.152,9.2C11.032,20.2,11.016,20.2,11,20.2z"/>
</svg>
